<svg width="18" height="24" viewBox="0 0 18 24" fill="none" xmlns="http://www.w3.org/2000/svg">
<path d="M11.8326 4.46512C13.0605 4.46512 14.0651 3.46047 14.0651 2.23256C14.0651 1.00465 13.0605 0 11.8326 0C10.6047 0 9.6 1.00465 9.6 2.23256C9.6 3.46047 10.6047 4.46512 11.8326 4.46512ZM7.81395 19.9814L8.93023 15.0698L11.2744 17.3023V24H13.507V15.6279L11.1628 13.3953L11.8326 10.0465C13.2837 11.7209 15.5163 12.8372 17.9721 12.8372V10.6047C15.8512 10.6047 14.0651 9.48837 13.1721 7.92558L12.0558 6.13953C11.6093 5.46977 10.9395 5.02326 10.1581 5.02326C9.82326 5.02326 9.6 5.13488 9.26512 5.13488L3.46046 7.5907V12.8372H5.69302V9.04186L7.70233 8.26046L5.91628 17.3023L0.446511 16.186L0 18.4186L7.81395 19.9814Z" fill="#252525"/>
</svg>
