<svg width="24" height="24" viewBox="0 0 24 24" fill="none" xmlns="http://www.w3.org/2000/svg">
<path d="M12 13.5312C14.3669 13.5312 17.201 14.0008 19.3994 14.9062C20.4987 15.359 21.3681 15.8922 21.9453 16.4678C22.5081 17.0289 22.75 17.5813 22.75 18.1436V22.7549H1.25V18.1436L1.26172 17.9326C1.31571 17.4427 1.56232 16.9587 2.05469 16.4678C2.63194 15.8922 3.50134 15.359 4.60059 14.9062C6.79898 14.0008 9.63314 13.5312 12 13.5312Z" stroke="#252525" stroke-width="2.5"/>
<path d="M12 1.25C14.0707 1.25 15.7499 2.92907 15.75 5.00098C15.75 7.07297 14.0708 8.75195 12 8.75195C9.92921 8.75195 8.25 7.07297 8.25 5.00098C8.25011 2.92907 9.92927 1.25 12 1.25Z" stroke="#252525" stroke-width="2.5"/>
</svg>
