<svg width="24" height="24" viewBox="0 0 24 24" fill="none" xmlns="http://www.w3.org/2000/svg">
<path d="M3.4 24C2.74 24 2.175 23.765 1.705 23.295C1.235 22.825 1 22.26 1 21.6V2.4C1 1.74 1.235 1.175 1.705 0.705C2.175 0.235 2.74 0 3.4 0H13L20.2 7.2V12.42C19.82 12.28 19.43 12.175 19.03 12.105C18.63 12.035 18.22 12 17.8 12V8.4H11.8V2.4H3.4V21.6H11.02C11.18 22.06 11.38 22.49 11.62 22.89C11.86 23.29 12.14 23.66 12.46 24H3.4ZM15.28 23.4L13.6 21.72L16.12 19.2L13.6 16.68L15.28 15L17.8 17.52L20.32 15L22 16.68L19.51 19.2L22 21.72L20.32 23.4L17.8 20.91L15.28 23.4Z" fill="#252525"/>
</svg>
