<svg width="24" height="24" viewBox="0 0 24 24" fill="none" xmlns="http://www.w3.org/2000/svg">
<path d="M17.4004 2.25C20.4622 2.25019 22.7498 4.51498 22.75 7.29395C22.75 9.02654 21.9445 10.7075 20.2383 12.6982C18.5203 14.7026 16.0388 16.8542 12.9238 19.5537L12.002 20.3467L11.0791 19.5459L11.0781 19.5439L8.86133 17.6191C6.76821 15.7839 5.05032 14.1987 3.76172 12.6963C2.0558 10.7072 1.25 9.02652 1.25 7.29395C1.25018 4.51498 3.53775 2.25019 6.59961 2.25C8.33074 2.25 9.996 3.02475 11.0674 4.22461L12 5.26855L12.9326 4.22461C14.004 3.02475 15.6693 2.25 17.4004 2.25Z" stroke="#252525" stroke-width="2.5"/>
</svg>
