<svg width="20" height="20" viewBox="0 0 20 20" fill="none" xmlns="http://www.w3.org/2000/svg">
<circle cx="4" cy="4" r="4" fill="#FBC304"/>
<path d="M9 18H13C13 19.0476 12.1193 20 11.0717 20C10.0241 20 9 19.0476 9 18ZM18 15H20L20 17H2.00002L2 15H3.99998L4 14.2857V8.57143C4 5.61905 6.30983 2.85714 9.16697 2V1.90476C9.16697 0.857143 10.0241 0 11.0717 0C12.1193 0 12.9765 0.857143 12.9765 1.90476V2C15.8336 2.85714 18 5.61905 18 8.57143V14.2857V15ZM16 8.57143C16 5.90476 13.7384 3.80952 11.0717 3.80952C8.40506 3.80952 6.00002 5.90476 6.00002 8.57143L6 15H16L16 8.57143Z" fill="#252525"/>
</svg>
