<svg width="24" height="24" viewBox="0 0 24 24" fill="none" xmlns="http://www.w3.org/2000/svg">
<path d="M5.88889 16.8H14.4444V19.2H5.88889V16.8ZM5.88889 12H18.1111V14.4H5.88889V12ZM5.88889 7.2H18.1111V9.6H5.88889V7.2ZM20.5556 2.4H15.4467C14.9333 1.008 13.5889 0 12 0C10.4111 0 9.06667 1.008 8.55333 2.4H3.44444C3.27333 2.4 3.11444 2.412 2.95556 2.448C2.47889 2.544 2.05111 2.784 1.72111 3.108C1.50111 3.324 1.31778 3.588 1.19556 3.876C1.07333 4.152 1 4.464 1 4.8V21.6C1 21.924 1.07333 22.248 1.19556 22.536C1.31778 22.824 1.50111 23.076 1.72111 23.304C2.05111 23.628 2.47889 23.868 2.95556 23.964C3.11444 23.988 3.27333 24 3.44444 24H20.5556C21.9 24 23 22.92 23 21.6V4.8C23 3.48 21.9 2.4 20.5556 2.4ZM12 2.1C12.5011 2.1 12.9167 2.508 12.9167 3C12.9167 3.492 12.5011 3.9 12 3.9C11.4989 3.9 11.0833 3.492 11.0833 3C11.0833 2.508 11.4989 2.1 12 2.1ZM20.5556 21.6H3.44444V4.8H20.5556V21.6Z" fill="#252525"/>
</svg>
