<svg width="24" height="24" viewBox="0 0 24 24" fill="none" xmlns="http://www.w3.org/2000/svg">
<path d="M16.9733 0H7.02667L0 7.02667V16.9733L7.02667 24H16.9733L24 16.9733V7.02667L16.9733 0ZM21.3333 15.8667L15.8667 21.3333H8.13333L2.66667 15.8667V8.13333L8.13333 2.66667H15.8667L21.3333 8.13333V15.8667Z" fill="#252525" fill-opacity="0.3"/>
<path d="M12.0003 18.6667C12.7367 18.6667 13.3337 18.0697 13.3337 17.3333C13.3337 16.597 12.7367 16 12.0003 16C11.2639 16 10.667 16.597 10.667 17.3333C10.667 18.0697 11.2639 18.6667 12.0003 18.6667Z" fill="#252525" fill-opacity="0.3"/>
<path d="M10.667 5.3335H13.3337V14.6668H10.667V5.3335Z" fill="#252525" fill-opacity="0.3"/>
</svg>
