<svg width="18" height="20" viewBox="0 0 18 20" fill="none" xmlns="http://www.w3.org/2000/svg">
<path d="M7 18H11C11 19.0476 10.1193 20 9.07173 20C8.02411 20 7 19.0476 7 18ZM16 15H18L18 17H2.28882e-05L0 15H1.99998L2 14.2857V8.57143C2 5.61905 4.30983 2.85714 7.16697 2V1.90476C7.16697 0.857143 8.02411 0 9.07173 0C10.1193 0 10.9765 0.857143 10.9765 1.90476V2C13.8336 2.85714 16 5.61905 16 8.57143V14.2857V15ZM14 8.57143C14 5.90476 11.7384 3.80952 9.07173 3.80952C6.40506 3.80952 4.00002 5.90476 4.00002 8.57143L4 15H14L14 8.57143Z" fill="#252525"/>
</svg>
