<svg width="24" height="24" viewBox="0 0 24 24" fill="none" xmlns="http://www.w3.org/2000/svg">
<path d="M10.9091 21.6364L7.44545 18.5273C6.13636 17.3455 5.01382 16.2909 4.07782 15.3636C3.14109 14.4364 2.36836 13.5636 1.75964 12.7455C1.15018 11.9273 0.704727 11.1364 0.423273 10.3727C0.141091 9.60909 0 8.80909 0 7.97273C0 6.26364 0.572727 4.84073 1.71818 3.704C2.86364 2.568 4.29091 2 6 2C6.94545 2 7.84546 2.2 8.7 2.6C9.55455 3 10.2909 3.56364 10.9091 4.29091C11.5273 3.56364 12.2636 3 13.1182 2.6C13.9727 2.2 14.8727 2 15.8182 2C17.2909 2 18.5273 2.41345 19.5273 3.24036C20.5273 4.068 21.2091 5.10909 21.5727 6.36364H19.2545C18.9273 5.63636 18.4455 5.09091 17.8091 4.72727C17.1727 4.36364 16.5091 4.18182 15.8182 4.18182C14.8909 4.18182 14.0909 4.432 13.4182 4.93236C12.7455 5.432 12.1182 6.09091 11.5364 6.90909H10.2818C9.71818 6.09091 9.07745 5.432 8.35964 4.93236C7.64109 4.432 6.85455 4.18182 6 4.18182C4.96364 4.18182 4.068 4.54073 3.31309 5.25855C2.55891 5.97709 2.18182 6.88182 2.18182 7.97273C2.18182 8.57273 2.30909 9.18182 2.56364 9.8C2.81818 10.4182 3.27273 11.132 3.92727 11.9415C4.58182 12.7502 5.47273 13.6953 6.6 14.7767C7.72727 15.8589 9.16364 17.1636 10.9091 18.6909C11.3818 18.2727 11.9364 17.7909 12.5727 17.2455C13.2091 16.7 13.7182 16.2455 14.1 15.8818L14.3455 16.1273L14.8767 16.6596L15.4091 17.1909L15.6545 17.4364C15.2545 17.8 14.7455 18.2498 14.1273 18.7858C13.5091 19.3225 12.9636 19.8 12.4909 20.2182L10.9091 21.6364ZM18.5455 17.2727V14H15.2727V11.8182H18.5455V8.54545H20.7273V11.8182H24V14H20.7273V17.2727H18.5455Z" fill="#252525"/>
</svg>
